<svg xmlns="http://www.w3.org/2000/svg" width="151.17" height="151.17" viewBox="0 0 151.17 151.17">
  <g id="Group_33" data-name="Group 33" transform="translate(-422.349 -674.313)" opacity="0.7">
    <path id="Path_47" data-name="Path 47" d="M478.9,780.138l1.529,4.736,4.976-.009-4.032,2.917,1.547,4.73-4.021-2.933-4.021,2.933,1.547-4.73-4.032-2.917,4.976.009Z" transform="translate(-24.261 -36.428)" fill="#fff"/>
    <path id="Path_48" data-name="Path 48" d="M602.863,780.138l1.529,4.736,4.977-.009-4.032,2.917,1.547,4.73-4.021-2.933-4.021,2.933,1.548-4.73-4.033-2.917,4.977.009Z" transform="translate(-60.566 -36.428)" fill="#fff"/>
    <path id="Path_49" data-name="Path 49" d="M542.767,835.458a1.993,1.993,0,1,1-1.993,1.993A1.994,1.994,0,0,1,542.767,835.458Z" transform="translate(-44.836 -44.01)" fill="#fff"/>
    <rect id="Rectangle_14" data-name="Rectangle 14" width="25.246" height="1.383" transform="translate(468.746 792.75)" fill="#fff"/>
    <rect id="Rectangle_15" data-name="Rectangle 15" width="25.247" height="1.383" transform="translate(501.87 792.75)" fill="#fff"/>
    <path id="Path_50" data-name="Path 50" d="M542.767,740.456a1.993,1.993,0,1,1-1.993,1.993A1.994,1.994,0,0,1,542.767,740.456Z" transform="translate(-44.836 -18.045)" fill="#fff"/>
    <rect id="Rectangle_16" data-name="Rectangle 16" width="25.246" height="1.383" transform="translate(468.746 723.713)" fill="#fff"/>
    <rect id="Rectangle_17" data-name="Rectangle 17" width="25.247" height="1.383" transform="translate(501.87 723.713)" fill="#fff"/>
    <path id="Path_52" data-name="Path 52" d="M453.326,701.986l4.148,4.149a2.3,2.3,0,0,1,.416.569,63.8,63.8,0,0,1,9.612-7.386,2.344,2.344,0,0,1-.438-.547l-2.934-5.082a2.326,2.326,0,0,1-.178-.382,70.617,70.617,0,0,0-10.945,8.409,2.382,2.382,0,0,1,.318.268Zm-5.972,17.482a2.338,2.338,0,0,0-.547-.437l-5.081-2.934a2.31,2.31,0,0,0-.382-.178,70.629,70.629,0,0,1,8.41-10.947,2.317,2.317,0,0,0,.258.308l4.148,4.15a2.331,2.331,0,0,0,.579.426,63.764,63.764,0,0,0-7.386,9.612Zm-13.183,13.258,5.668,1.519a2.33,2.33,0,0,1,.639.277,62.994,62.994,0,0,1,4.64-11.19,2.345,2.345,0,0,1-.654-.258l-5.081-2.934a2.27,2.27,0,0,1-.343-.242,69.837,69.837,0,0,0-5.288,12.754,2.411,2.411,0,0,1,.419.073Zm-2.987,18.021h5.867a2.331,2.331,0,0,1,.7.107,63.457,63.457,0,0,1,1.568-12.01,2.333,2.333,0,0,1-.693-.079l-5.668-1.519a2.356,2.356,0,0,1-.4-.146,70.475,70.475,0,0,0-1.786,13.682,2.3,2.3,0,0,1,.407-.035Zm1.778,18.183,5.668-1.518a2.354,2.354,0,0,1,.693-.08,63.43,63.43,0,0,1-1.568-12.008,2.35,2.35,0,0,1-.7.107h-5.867a2.371,2.371,0,0,1-.407-.035,70.456,70.456,0,0,0,1.786,13.68,2.358,2.358,0,0,1,.4-.147Zm6.422,17.106,5.081-2.933a2.362,2.362,0,0,1,.654-.258,63.069,63.069,0,0,1-4.641-11.191,2.334,2.334,0,0,1-.638.277l-5.668,1.519a2.411,2.411,0,0,1-.419.072,69.871,69.871,0,0,0,5.289,12.755,2.417,2.417,0,0,1,.343-.242Zm10.629,14.851,4.148-4.148a2.347,2.347,0,0,1,.575-.422,63.649,63.649,0,0,1-7.382-9.606,2.334,2.334,0,0,1-.547.437l-5.081,2.935a2.307,2.307,0,0,1-.382.177A70.555,70.555,0,0,0,449.75,801.2a2.534,2.534,0,0,1,.263-.313Zm14.119,11.6a2.252,2.252,0,0,0-.178.381,70.611,70.611,0,0,1-10.941-8.406,2.378,2.378,0,0,0,.313-.263l4.148-4.148a2.364,2.364,0,0,0,.422-.575,63.591,63.591,0,0,0,9.607,7.382,2.342,2.342,0,0,0-.438.547l-2.934,5.082Zm16.63,7.554,1.519-5.668a2.335,2.335,0,0,1,.277-.638,63.066,63.066,0,0,1-11.191-4.641,2.359,2.359,0,0,1-.258.654l-2.934,5.081a2.385,2.385,0,0,1-.242.342,69.866,69.866,0,0,0,12.755,5.289,2.351,2.351,0,0,1,.072-.419Zm18.02,2.988v-5.868a2.357,2.357,0,0,1,.107-.7,63.326,63.326,0,0,1-12.008-1.568,2.356,2.356,0,0,1-.08.694l-1.519,5.668a2.317,2.317,0,0,1-.146.4,70.46,70.46,0,0,0,13.681,1.786,2.3,2.3,0,0,1-.035-.406Zm18.185-1.779-1.519-5.668a2.335,2.335,0,0,1-.079-.694,63.353,63.353,0,0,1-12.009,1.568,2.355,2.355,0,0,1,.107.7v5.868a2.3,2.3,0,0,1-.035.406,70.485,70.485,0,0,0,13.682-1.786,2.322,2.322,0,0,1-.146-.4Zm17.105-6.429-2.933-5.082a2.333,2.333,0,0,1-.253-.647,63.008,63.008,0,0,1-11.2,4.642,2.359,2.359,0,0,1,.277.639l1.519,5.668a2.477,2.477,0,0,1,.073.419,70,70,0,0,0,12.758-5.289,2.424,2.424,0,0,1-.245-.35Zm14.86-10.621-4.149-4.148a2.347,2.347,0,0,1-.426-.579,63.734,63.734,0,0,1-9.616,7.388,2.328,2.328,0,0,1,.442.554l2.934,5.082a2.392,2.392,0,0,1,.173.375,70.676,70.676,0,0,0,10.951-8.413,2.367,2.367,0,0,1-.309-.259Zm11.591-14.119a2.274,2.274,0,0,0,.382.177A70.634,70.634,0,0,1,552.5,801.2a2.425,2.425,0,0,0-.268-.318l-4.149-4.148a2.333,2.333,0,0,0-.569-.417,63.664,63.664,0,0,0,7.386-9.611,2.335,2.335,0,0,0,.547.437l5.082,2.935Zm7.554-16.631-5.668-1.519a2.359,2.359,0,0,1-.639-.277,62.978,62.978,0,0,1-4.641,11.191,2.358,2.358,0,0,1,.655.258l5.081,2.933a2.489,2.489,0,0,1,.342.242,69.875,69.875,0,0,0,5.289-12.755,2.41,2.41,0,0,1-.419-.072Zm2.988-18.02H565.2a2.351,2.351,0,0,1-.7-.107,63.424,63.424,0,0,1-1.568,12.008,2.36,2.36,0,0,1,.694.08l5.667,1.518a2.362,2.362,0,0,1,.4.147,70.456,70.456,0,0,0,1.786-13.679,2.424,2.424,0,0,1-.406.034Zm-1.78-18.185-5.667,1.519a2.339,2.339,0,0,1-.694.079,63.457,63.457,0,0,1,1.568,12.01,2.332,2.332,0,0,1,.7-.107h5.868a2.344,2.344,0,0,1,.406.035,70.462,70.462,0,0,0-1.786-13.681,2.361,2.361,0,0,1-.4.146Zm-6.42-17.105-5.081,2.934a2.341,2.341,0,0,1-.655.258,62.974,62.974,0,0,1,4.641,11.191,2.307,2.307,0,0,1,.639-.278l5.668-1.519a2.41,2.41,0,0,1,.419-.073,69.871,69.871,0,0,0-5.288-12.754,2.333,2.333,0,0,1-.342.242Zm-10.629-14.851-4.149,4.15a2.361,2.361,0,0,1-.575.421,63.657,63.657,0,0,1,7.382,9.607,2.339,2.339,0,0,1,.547-.437l5.082-2.934a2.347,2.347,0,0,1,.382-.178,70.587,70.587,0,0,0-8.406-10.941,2.319,2.319,0,0,1-.262.312Zm-14.12-11.61a2.369,2.369,0,0,0,.173-.375,70.7,70.7,0,0,1,10.945,8.409,2.319,2.319,0,0,0-.312.262l-4.15,4.149a2.376,2.376,0,0,0-.421.575,63.709,63.709,0,0,0-9.611-7.384,2.327,2.327,0,0,0,.442-.554l2.934-5.082Zm-16.63-7.544-1.519,5.668a2.345,2.345,0,0,1-.278.64,63.087,63.087,0,0,1,11.2,4.642,2.333,2.333,0,0,1,.253-.647l2.933-5.082a2.427,2.427,0,0,1,.245-.35,70,70,0,0,0-12.758-5.289,2.481,2.481,0,0,1-.073.418Zm-18.021-2.988v5.867a2.36,2.36,0,0,1-.107.705,63.456,63.456,0,0,1,12.009,1.568,2.341,2.341,0,0,1,.079-.694l1.519-5.668a2.334,2.334,0,0,1,.146-.4,70.475,70.475,0,0,0-13.681-1.786,2.427,2.427,0,0,1,.034.406Zm-18.184,1.778,1.519,5.668a2.363,2.363,0,0,1,.08.694,63.436,63.436,0,0,1,12.008-1.568,2.362,2.362,0,0,1-.107-.705v-5.867a2.415,2.415,0,0,1,.034-.406,70.438,70.438,0,0,0-13.68,1.786,2.329,2.329,0,0,1,.146.4Zm-17.107,6.421,2.934,5.081a2.355,2.355,0,0,1,.258.655,63.042,63.042,0,0,1,11.191-4.641,2.338,2.338,0,0,1-.277-.639l-1.519-5.668a2.351,2.351,0,0,1-.072-.419A69.866,69.866,0,0,0,467.935,691,2.382,2.382,0,0,1,468.177,691.347Z" transform="translate(-3.191 -3.191)" fill="#fff"/>
    <path id="Path_53" data-name="Path 53" d="M497.933,674.313a75.586,75.586,0,1,1-53.446,22.139,75.351,75.351,0,0,1,53.446-22.139ZM550.426,697.4A74.235,74.235,0,1,0,572.17,749.9,74.006,74.006,0,0,0,550.426,697.4Z" fill="#fff"/>
    <path id="Path_54" data-name="Path 54" d="M507.74,700.216a59.489,59.489,0,1,1-42.064,17.424,59.308,59.308,0,0,1,42.064-17.424Zm41.112,18.377a58.141,58.141,0,1,0,17.029,41.112A57.962,57.962,0,0,0,548.852,718.593Z" transform="translate(-9.807 -9.807)" fill="#fff"/>
    <text id="MADE_IN_THE" data-name="MADE IN THE" transform="translate(497.934 718.395)" fill="#fff" font-size="23" font-family="Devant-Medium, Devant" font-weight="500"><tspan x="-24" y="0">MADE IN THE</tspan></text>
    <text id="USA" transform="translate(499.934 785.398)" fill="#fff" font-size="79" font-family="Devant-Medium, Devant" font-weight="500"><tspan x="-29" y="0">USA</tspan></text>
  </g>
</svg>
