<svg xmlns="http://www.w3.org/2000/svg" width="152.169" height="152.169" viewBox="0 0 152.169 152.169">
  <g id="Group_34" data-name="Group 34" transform="translate(-1060.004 -379.612)" opacity="0.7">
    <path id="Path_55" data-name="Path 55" d="M1138.126,398.425a70.972,70.972,0,1,1-50.187,20.787,70.753,70.753,0,0,1,50.187-20.787Zm49,21.97a69.3,69.3,0,1,0,20.3,49A69.085,69.085,0,0,0,1187.13,420.4Z" transform="translate(-2.038 -13.703)" fill="#fff" stroke="rgba(0,0,0,0)" stroke-width="1"/>
    <path id="Path_59" data-name="Path 59" d="M1093.443,489.723l1.893,5.863,6.16-.012-4.99,3.611,1.915,5.856-4.977-3.631-4.976,3.631,1.914-5.856-4.991-3.611,6.161.012Z" transform="translate(-1.547 -55.686)" fill="#fff" stroke="rgba(0,0,0,0)" stroke-width="1"/>
    <path id="Path_60" data-name="Path 60" d="M1238.426,489.723l1.893,5.863,6.16-.012-4.99,3.611,1.915,5.856-4.977-3.631-4.976,3.631,1.915-5.856-4.991-3.611,6.161.012Z" transform="translate(-58.145 -55.686)" fill="#fff" stroke="rgba(0,0,0,0)" stroke-width="1"/>
    <path id="Path_61" data-name="Path 61" d="M1164.737,353.717l2.529,7.835,8.233-.015-6.67,4.826,2.559,7.826-6.652-4.852-6.651,4.852,2.559-7.826-6.67-4.826,8.232.015Z" transform="translate(-28.649 41.417)" fill="#fff" stroke="rgba(0,0,0,0)" stroke-width="1"/>
    <path id="Path_62" data-name="Path 62" d="M1196.937,362.426l2.167,6.714,7.056-.014-5.717,4.137,2.194,6.706-5.7-4.159-5.7,4.159,2.194-6.706-5.716-4.137,7.055.014Z" transform="translate(-38.99 38.748)" fill="#fff" stroke="rgba(0,0,0,0)" stroke-width="1"/>
    <path id="Path_63" data-name="Path 63" d="M1133.9,362.426l-2.168,6.714-7.055-.014,5.717,4.137-2.194,6.706,5.7-4.159,5.7,4.159-2.194-6.706,5.716-4.137-7.055.014Z" transform="translate(-19.668 38.748)" fill="#fff" stroke="rgba(0,0,0,0)" stroke-width="1"/>
    <path id="Path_64" data-name="Path 64" d="M1136.089,391.777a75.584,75.584,0,1,1-53.447,22.138,75.349,75.349,0,0,1,53.447-22.138Zm52.187,23.4a73.8,73.8,0,1,0,21.616,52.187A73.574,73.574,0,0,0,1188.276,415.175Z" transform="translate(0 -11.665)" fill="#fff" stroke="rgba(0,0,0,0)" stroke-width="1"/>
    <text id="Custom" transform="translate(1136.089 456.717)" fill="#fff" font-size="39" font-family="Devant-Medium, Devant" font-weight="500"><tspan x="-29" y="0">CUSTOM</tspan></text>
    <text id="Formulations" transform="translate(1136.089 490.717)" fill="#fff" font-size="39" font-family="Devant-Medium, Devant" font-weight="500"><tspan x="-52" y="0">FORMULATIONS</tspan></text>
    <path id="Path_65" data-name="Path 65" d="M542.761,420.872a2.058,2.058,0,1,1-2.058,2.058A2.059,2.059,0,0,1,542.761,420.872Z" transform="translate(592.328 84.269)" fill="#fff" stroke="rgba(0,0,0,0)" stroke-width="1"/>
    <rect id="Rectangle_18" data-name="Rectangle 18" width="26.07" height="1.361" transform="translate(1104.951 506.519)" fill="#fff" stroke="rgba(0,0,0,0)" stroke-width="1"/>
    <rect id="Rectangle_19" data-name="Rectangle 19" width="26.07" height="1.361" transform="translate(1139.156 506.519)" fill="#fff" stroke="rgba(0,0,0,0)" stroke-width="1"/>
  </g>
</svg>
