<svg xmlns="http://www.w3.org/2000/svg" width="152.17" height="152.169" viewBox="0 0 152.17 152.169">
  <g id="Group_26" data-name="Group 26" transform="translate(-109.118 -673.834)" opacity="0.7">
    <path id="Path_13" data-name="Path 13" d="M192.944,694.788A62.871,62.871,0,1,1,148.486,713.2a62.677,62.677,0,0,1,44.459-18.415Zm43.522,19.349A61.549,61.549,0,1,0,254.5,757.66,61.358,61.358,0,0,0,236.467,714.137Z" transform="translate(-7.741 -7.741)" fill="#fff" stroke="rgba(0,0,0,0)" stroke-width="1"/>
    <path id="Path_14" data-name="Path 14" d="M176.477,820.855l-3.945-.336-2.5,3.049-.911-3.835-3.693-1.428,3.385-2.04.213-3.931,3,2.577,3.83-1-1.524,3.628,2.14,3.316ZM153.4,813.379l-3.6-1.644-3.379,2.031.434-3.918-3-2.587,3.874-.783,1.523-3.629,1.962,3.438,3.942.347-2.655,2.9.9,3.842Zm-19.08-14.856-2.863-2.735-3.858.808,1.7-3.559-1.982-3.428,3.917.533,2.63-2.929.724,3.892,3.61,1.623-3.461,1.87-.413,3.924Zm-12.951-20.449-1.789-3.533-3.906-.523,2.785-2.791-.727-3.892,3.515,1.807,3.456-1.883-.615,3.91,2.863,2.733-3.886.61-1.7,3.563Zm-5.251-23.722-.461-3.932-3.487-1.838,3.575-1.659.659-3.9,2.678,2.907,3.893-.578-1.923,3.46,1.746,3.552-3.859-.767-2.82,2.76Zm3.129-24.087.915-3.853-2.645-2.922,3.927-.332,1.959-3.44,1.517,3.649,3.856.792-2.994,2.589.422,3.936-3.363-2.044-3.6,1.625Zm11.168-21.457,2.143-3.33-1.525-3.635,3.816.991,2.99-2.6.221,3.946,3.373,2.028-3.684,1.448-.908,3.853-2.493-3.045-3.932.34Zm17.965-16.774,3.232-2.287-.054-3.942,3.168,2.347,3.745-1.288-1.273,3.742,2.37,3.142-3.958-.034-2.283,3.233-1.172-3.755-3.773-1.157Zm22.452-9.32,3.818-1.05,1.29-3.725,2.181,3.284,3.959.062-2.469,3.086,1.159,3.761-3.711-1.379-3.246,2.263.174-3.931-3.155-2.371Zm24.343-1.156,3.945.336,2.5-3.049.911,3.836,3.692,1.427-3.384,2.041-.213,3.93-3-2.577-3.83,1,1.524-3.628-2.14-3.316Zm23.177,7.254,3.6,1.644,3.379-2.031-.434,3.918,3,2.587-3.873.783-1.523,3.629-1.962-3.438-3.944-.347,2.656-2.9-.9-3.842Zm19.238,14.683,2.862,2.735,3.859-.807-1.7,3.558,1.981,3.428-3.916-.533-2.631,2.928-.723-3.891-3.61-1.624,3.461-1.87.414-3.924Zm13.16,20.335,1.788,3.533,3.907.524-2.786,2.79.726,3.893-3.514-1.807-3.456,1.883.614-3.91L245.161,728l3.886-.61,1.7-3.563Zm5.494,23.684.462,3.932,3.487,1.838-3.576,1.659-.66,3.9-2.676-2.907-3.893.578,1.923-3.46-1.746-3.552,3.859.767,2.82-2.76Zm-2.887,24.135-.916,3.853,2.646,2.922-3.928.332-1.959,3.442-1.517-3.649-3.855-.793,2.993-2.589-.422-3.936,3.362,2.044,3.6-1.626Zm-10.965,21.581-2.143,3.33,1.525,3.635-3.816-.99-2.99,2.595-.221-3.946-3.374-2.027,3.684-1.449.909-3.852,2.492,3.044,3.932-.34Zm-17.607,16.56-3.118,2.439.244,3.934-3.277-2.191-3.678,1.468,1.09-3.8-2.518-3.025,3.955-.156,2.126-3.339,1.353,3.695,3.824.973Zm-22.574,9.979-3.817,1.05-1.29,3.725-2.181-3.285-3.959-.062,2.469-3.086-1.159-3.76,3.711,1.379,3.247-2.263-.175,3.931Z" transform="translate(-0.964 -1.364)" fill="#fff" stroke="rgba(0,0,0,0)" stroke-width="1"/>
    <path id="Path_19" data-name="Path 19" d="M226.811,711.516l1.706,5.284,5.552-.01-4.5,3.255,1.726,5.278-4.486-3.272-4.486,3.272,1.726-5.278-4.5-3.255,5.552.01Z" transform="translate(-41.608 -14.072)" fill="#fff" stroke="rgba(0,0,0,0)" stroke-width="1"/>
    <path id="Path_23" data-name="Path 23" d="M226.811,725.322l1.706-5.284,5.552.01-4.5-3.255,1.726-5.278-4.486,3.272-4.486-3.272,1.726,5.278-4.5,3.255,5.552-.01Z" transform="translate(-41.608 75.044)" fill="#fff" stroke="rgba(0,0,0,0)" stroke-width="1"/>
    <path id="Path_20" data-name="Path 20" d="M251.163,721.908l1.462,4.529,4.759-.009-3.856,2.789,1.48,4.523-3.844-2.8-3.845,2.8,1.479-4.523-3.855-2.789,4.759.009Z" transform="translate(-51.217 -18.006)" fill="#fff" stroke="rgba(0,0,0,0)" stroke-width="1"/>
    <path id="Path_24" data-name="Path 24" d="M251.163,733.74l1.462-4.529,4.758.009-3.856-2.789,1.48-4.523-3.844,2.8-3.845-2.8,1.479,4.523-3.855,2.789,4.759-.009Z" transform="translate(-51.217 60.167)" fill="#fff" stroke="rgba(0,0,0,0)" stroke-width="1"/>
    <path id="Path_21" data-name="Path 21" d="M203.722,721.908l-1.462,4.529-4.758-.009,3.856,2.789-1.48,4.523,3.844-2.8,3.845,2.8-1.479-4.523,3.856-2.789-4.759.009Z" transform="translate(-33.262 -18.006)" fill="#fff" stroke="rgba(0,0,0,0)" stroke-width="1"/>
    <path id="Path_25" data-name="Path 25" d="M203.722,733.74l-1.462-4.529-4.758.009,3.856-2.789-1.48-4.523,3.844,2.8,3.845-2.8-1.479,4.523,3.856,2.789-4.759-.009Z" transform="translate(-33.262 60.167)" fill="#fff" stroke="rgba(0,0,0,0)" stroke-width="1"/>
    <path id="Path_22" data-name="Path 22" d="M185.2,674.334a75.584,75.584,0,1,1-53.447,22.138A75.345,75.345,0,0,1,185.2,674.334Zm52.511,23.073a74.262,74.262,0,1,0,21.751,52.512A74.031,74.031,0,0,0,237.714,697.407Z" transform="translate(0)" fill="#fff" stroke="rgba(0,0,0,0)" stroke-width="1"/>
    <text id="GMP" transform="translate(153.673 771.468)" fill="#fff" font-size="70" font-family="Devant-Medium, Devant" font-weight="500" letter-spacing="0.04em"><tspan x="0" y="0">GMP</tspan></text>
  </g>
</svg>
