<svg xmlns="http://www.w3.org/2000/svg" width="152.686" height="118.587" viewBox="0 0 152.686 118.587">
  <g id="Group_28" data-name="Group 28" transform="translate(-422.676 -388.63)" opacity="0.7">
    <g id="Group_28-2" data-name="Group 28" transform="translate(423.434 393.797)">
      <path id="Path_31" data-name="Path 31" d="M615.224,405.8q.945,1.148,1.836,2.344c.234-2.865,1.739-7.728,8.924-9.779,0,0-.164,8.79-7.614,11.6q1.476,2.137,2.779,4.407c.633-2.855,2.749-7.073,9.635-8.3,0,0-.916,8.533-8.32,10.7q1.131,2.181,2.1,4.46c.914-2.771,3.425-6.681,10.322-7.146,0,0-1.709,8.411-9.276,9.757q.4,1.071.769,2.161.448,1.333.843,2.694c1.206-2.642,4.116-6.209,11-5.81,0,0-2.6,8.171-10.27,8.548q.589,2.419,1,4.906c1.431-2.508,4.648-5.79,11.488-4.648,0,0-3.364,7.928-11.09,7.408q.309,2.516.432,5.088c1.727-2.285,5.284-5.027,11.848-3.005,0,0-4.217,7.393-11.775,5.9q.013,2.693-.186,5.43c1.8-2.2,5.55-4.92,12.173-2.338,0,0-4.8,7.269-12.415,4.934q-.26,2.331-.671,4.6c2.12-1.865,6.021-3.679,11.958-.484,0,0-5.392,6.477-12.569,3.488q-.621,2.73-1.45,5.358c1.957-1.9,6.246-4.528,12.811-.4,0,0-6.142,6.5-13.422,2.248q-.894,2.57-1.976,5.028c2.414-1.38,6.588-2.35,11.823,2.134,0,0-6.589,5.246-13.076.546q-1.264,2.555-2.732,4.966c2.325-1.438,6.865-2.876,12.4,2.342,0,0-7.151,5.161-13.55-.513q-1.345,2.053-2.829,3.983c2.592-.912,6.743-1.049,11.167,4.106,0,0-7.336,4.187-13.1-1.709q-.465.546-.94,1.082l-.384.428-1.769-.638q.432-.466.855-.942l.593-.677c-2.606-.318-7.169-2.05-8.6-10.07,0,0,7.827.533,10.078,8.288q1.588-1.985,3.025-4.117c-2.684-.008-7.136-1.233-9.531-8.589,0,0,7.639-.693,10.989,6.318q1.44-2.349,2.689-4.847c-2.64.6-7.193.393-10.981-6.138,0,0,7.444-2.505,12.132,3.7q.987-2.2,1.818-4.5c-2.584.869-7.11,1.11-11.457-4.934,0,0,7.114-3.259,12.348,2.286q.746-2.382,1.319-4.851c-2.445,1.15-7.135,2.069-12.1-3.862,0,0,6.988-3.87,12.614,1.423q.473-2.459.767-4.993c-2.3,1.452-6.889,2.991-12.486-2.307,0,0,6.558-4.717,12.723-.134q.2-2.568.21-5.1c-2.223,1.715-6.3,3.336-12.1-.478,0,0,5.455-5.551,12.038-2.7q-.1-2.24-.345-4.439c-1.991,1.984-6.023,4.351-12.416.908,0,0,5.133-6.163,12.044-3.689q-.4-2.572-.994-5.072c-1.8,2.145-5.717,5.036-12.5,1.972,0,0,4.768-6.53,11.839-4.525q-.433-1.543-.94-3.052-.332-.982-.692-1.95c-1.583,2.356-5.149,5.617-12.147,3.5,0,0,3.959-7.008,11.132-6.05q-.846-2.011-1.829-3.939c-1.788,2.232-5.383,4.809-11.826,2.683,0,0,3.655-6.157,10.076-5.9q-1.072-1.839-2.265-3.59c-1.722,2.267-5.392,5.169-12.134,2.81,0,0,3.7-6,10.024-5.721q-.486-.63-.987-1.246c-2.816-.344-9.338-2.339-10.391-13.357C603.7,393.8,613.634,395.423,615.224,405.8Z" transform="translate(-490.675 -393.797)" fill="#fff" stroke="rgba(0,0,0,0)" stroke-width="1"/>
      <path id="Path_32" data-name="Path 32" d="M450.054,405.8q-.945,1.148-1.836,2.344c-.234-2.865-1.739-7.728-8.924-9.779,0,0,.164,8.79,7.614,11.6q-1.476,2.137-2.779,4.407c-.633-2.855-2.749-7.073-9.635-8.3,0,0,.916,8.533,8.32,10.7q-1.131,2.181-2.1,4.46c-.913-2.771-3.424-6.681-10.322-7.146,0,0,1.709,8.411,9.276,9.757q-.4,1.071-.769,2.161-.448,1.333-.843,2.694c-1.206-2.642-4.116-6.209-11-5.81,0,0,2.6,8.171,10.27,8.548q-.59,2.419-1,4.906c-1.431-2.508-4.649-5.79-11.488-4.648,0,0,3.364,7.928,11.09,7.408q-.309,2.516-.432,5.088c-1.727-2.285-5.285-5.027-11.848-3.005,0,0,4.216,7.393,11.774,5.9q-.012,2.693.186,5.43c-1.8-2.2-5.55-4.92-12.173-2.338,0,0,4.8,7.269,12.415,4.934q.26,2.331.671,4.6c-2.121-1.865-6.021-3.679-11.958-.484,0,0,5.392,6.477,12.569,3.488q.621,2.73,1.449,5.358c-1.956-1.9-6.245-4.528-12.811-.4,0,0,6.142,6.5,13.422,2.248q.893,2.57,1.976,5.028c-2.415-1.38-6.588-2.35-11.823,2.134,0,0,6.589,5.246,13.075.546q1.265,2.555,2.733,4.966c-2.325-1.438-6.865-2.876-12.4,2.342,0,0,7.151,5.161,13.55-.513q1.345,2.053,2.828,3.983c-2.592-.912-6.743-1.049-11.166,4.106,0,0,7.336,4.187,13.1-1.709q.465.546.94,1.082l.384.428,1.769-.638q-.432-.466-.855-.942l-.593-.677c2.607-.318,7.17-2.05,8.6-10.07,0,0-7.827.533-10.078,8.288q-1.589-1.985-3.025-4.117c2.684-.008,7.136-1.233,9.531-8.589,0,0-7.639-.693-10.989,6.318q-1.44-2.349-2.689-4.847c2.64.6,7.193.393,10.981-6.138,0,0-7.444-2.505-12.132,3.7q-.987-2.2-1.818-4.5c2.584.869,7.11,1.11,11.457-4.934,0,0-7.114-3.259-12.348,2.286q-.747-2.382-1.319-4.851c2.445,1.15,7.135,2.069,12.1-3.862,0,0-6.988-3.87-12.613,1.423q-.473-2.459-.767-4.993c2.3,1.452,6.889,2.991,12.486-2.307,0,0-6.558-4.717-12.723-.134q-.2-2.568-.211-5.1c2.223,1.715,6.3,3.336,12.1-.478,0,0-5.455-5.551-12.038-2.7q.1-2.24.345-4.439c1.991,1.984,6.022,4.351,12.416.908,0,0-5.133-6.163-12.044-3.689q.4-2.572.994-5.072c1.8,2.145,5.717,5.036,12.5,1.972,0,0-4.768-6.53-11.839-4.525q.433-1.543.94-3.052.332-.982.692-1.95c1.583,2.356,5.148,5.617,12.147,3.5,0,0-3.959-7.008-11.131-6.05q.846-2.011,1.829-3.939c1.788,2.232,5.383,4.809,11.826,2.683,0,0-3.655-6.157-10.075-5.9q1.072-1.839,2.265-3.59c1.722,2.267,5.392,5.169,12.134,2.81,0,0-3.7-6-10.025-5.721q.487-.63.988-1.246c2.816-.344,9.338-2.339,10.391-13.357C461.578,393.8,451.644,395.423,450.054,405.8Z" transform="translate(-423.434 -393.797)" fill="#fff" stroke="rgba(0,0,0,0)" stroke-width="1"/>
    </g>
    <g id="Group_29" data-name="Group 29" transform="translate(484.12 390.258)">
      <path id="Path_35" data-name="Path 35" d="M483.586,463.114,485.165,468l5.139-.01-4.163,3.013,1.6,4.885-4.152-3.029-4.152,3.029,1.6-4.885-4.164-3.013,5.139.01Z" transform="translate(-476.868 -463.114)" fill="#fff" stroke="rgba(0,0,0,0)" stroke-width="1"/>
      <path id="Path_36" data-name="Path 36" d="M596.389,463.114,597.968,468l5.139-.01-4.163,3.013,1.6,4.885-4.153-3.029-4.152,3.029,1.6-4.885-4.164-3.013,5.139.01Z" transform="translate(-573.311 -463.114)" fill="#fff" stroke="rgba(0,0,0,0)" stroke-width="1"/>
    </g>
    <path id="Path_37" data-name="Path 37" d="M542.761,519.728a2.058,2.058,0,1,1-2.058,2.057A2.059,2.059,0,0,1,542.761,519.728Z" transform="translate(-43.742 -39.973)" fill="#fff" stroke="rgba(0,0,0,0)" stroke-width="1"/>
    <rect id="Rectangle_10" data-name="Rectangle 10" width="26.07" height="1.36" transform="translate(468.882 481.132)" fill="#fff" stroke="rgba(0,0,0,0)" stroke-width="1"/>
    <rect id="Rectangle_11" data-name="Rectangle 11" width="26.07" height="1.36" transform="translate(503.086 481.132)" fill="#fff" stroke="rgba(0,0,0,0)" stroke-width="1"/>
    <path id="Path_38" data-name="Path 38" d="M542.761,420.872a2.058,2.058,0,1,1-2.058,2.058A2.059,2.059,0,0,1,542.761,420.872Z" transform="translate(-43.742 -10.099)" fill="#fff" stroke="rgba(0,0,0,0)" stroke-width="1"/>
    <rect id="Rectangle_12" data-name="Rectangle 12" width="26.07" height="1.361" transform="translate(468.882 412.151)" fill="#fff" stroke="rgba(0,0,0,0)" stroke-width="1"/>
    <rect id="Rectangle_13" data-name="Rectangle 13" width="26.07" height="1.361" transform="translate(503.086 412.151)" fill="#fff" stroke="rgba(0,0,0,0)" stroke-width="1"/>
    <g id="Group_30" data-name="Group 30" transform="translate(474.694 492.17)">
      <path id="Path_40" data-name="Path 40" d="M566.974,550.694l1.7,5.255,5.521-.011-4.473,3.237,1.716,5.249-4.461-3.255-4.461,3.255,1.716-5.249-4.474-3.237,5.522.011Z" transform="translate(-525.543 -550.694)" fill="#fff" stroke="rgba(0,0,0,0)" stroke-width="1"/>
      <path id="Path_41" data-name="Path 41" d="M512.407,550.694l-1.7,5.255-5.521-.011,4.473,3.237-1.716,5.249,4.461-3.255,4.461,3.255-1.717-5.249,4.474-3.237-5.521.011Z" transform="translate(-505.19 -550.694)" fill="#fff" stroke="rgba(0,0,0,0)" stroke-width="1"/>
    </g>
    <path id="Path_42" data-name="Path 42" d="M539.691,550.694l1.7,5.255,5.522-.011-4.474,3.237,1.716,5.249-4.461-3.255-4.461,3.255,1.717-5.249-4.473-3.237,5.521.011Z" transform="translate(-40.673 -58.524)" fill="#fff" stroke="rgba(0,0,0,0)" stroke-width="1"/>
    <g id="Group_31" data-name="Group 31" transform="translate(458.089 492.17)">
      <path id="Path_43" data-name="Path 43" d="M593.457,550.694l1.7,5.255,5.521-.011-4.473,3.237,1.717,5.249-4.461-3.255L589,564.424l1.716-5.249-4.474-3.237,5.521.011Z" transform="translate(-518.816 -550.694)" fill="#fff" stroke="rgba(0,0,0,0)" stroke-width="1"/>
      <path id="Path_44" data-name="Path 44" d="M485.924,550.694l1.7,5.255,5.521-.011-4.473,3.237,1.716,5.249-4.461-3.255-4.461,3.255,1.717-5.249-4.474-3.237,5.522.011Z" transform="translate(-478.705 -550.694)" fill="#fff" stroke="rgba(0,0,0,0)" stroke-width="1"/>
    </g>
    <text id="ALL_NATURAL" data-name="ALLNATURAL" transform="translate(499.019 446.349)" fill="#fff" font-size="38" font-family="Devant-Medium, Devant" font-weight="500" letter-spacing="0.04em"><tspan x="-13" y="0">ALL</tspan><tspan x="-35" y="28">NATURAL</tspan></text>
  </g>
</svg>
