<svg xmlns="http://www.w3.org/2000/svg" width="152.17" height="147.58" viewBox="0 0 152.17 147.58">
  <g id="Group_27" data-name="Group 27" transform="translate(-110.18 -65.348)" opacity="0.7">
    <path id="Path_26" data-name="Path 26" d="M133.92,253.949H129.3v1.958h4.62v-1.958Zm70.622,0h-4.62v1.958h4.62v-1.958Z" transform="translate(17.258 -61.097)" fill="#fff" stroke="rgba(0,0,0,0)" stroke-width="1"/>
    <path id="Path_28" data-name="Path 28" d="M147.464,197.9H252.639v1.958H147.464V197.9Zm0-65.678H252.639v1.958H147.464Z" transform="translate(-13.72 -24.757)" fill="#fff" stroke="rgba(0,0,0,0)" stroke-width="1"/>
    <path id="Path_29" data-name="Path 29" d="M120.524,172.06a3.65,3.65,0,0,1-2.926-.071,3.935,3.935,0,0,1-2.015-5.116,3.75,3.75,0,0,1,5.01-1.984,3.942,3.942,0,0,1,2.019,5.123,3.655,3.655,0,0,1-2.089,2.048Zm-5.2-16.846a3.645,3.645,0,0,1-2.816-.79,3.934,3.934,0,0,1-.692-5.455,3.747,3.747,0,0,1,5.345-.685,3.941,3.941,0,0,1,.693,5.462,3.649,3.649,0,0,1-2.529,1.468Zm-1.308-17.61a3.646,3.646,0,0,1-2.53-1.47,3.935,3.935,0,0,1,.693-5.455,3.747,3.747,0,0,1,5.346.672,3.947,3.947,0,0,1-.693,5.462,3.654,3.654,0,0,1-2.816.79Zm3.157-17.229a3.65,3.65,0,0,1-2.09-2.047,3.935,3.935,0,0,1,2.017-5.116,3.749,3.749,0,0,1,5.015,1.969,3.942,3.942,0,0,1-2.019,5.123,3.644,3.644,0,0,1-2.923.071Zm7.131-16.148a3.642,3.642,0,0,1-1.536-2.489,3.935,3.935,0,0,1,3.186-4.482,3.75,3.75,0,0,1,4.4,3.118,3.942,3.942,0,0,1-3.19,4.487,3.647,3.647,0,0,1-2.856-.634Zm11.027-13.635a3.652,3.652,0,0,1-.9-2.784,3.935,3.935,0,0,1,4.158-3.6,3.748,3.748,0,0,1,3.533,4.07,3.946,3.946,0,0,1-4.163,3.6,3.652,3.652,0,0,1-2.625-1.292Zm13.86-10.9a3.649,3.649,0,0,1-.214-2.917,3.938,3.938,0,0,1,4.9-2.507,3.75,3.75,0,0,1,2.462,4.794,3.943,3.943,0,0,1-4.9,2.509,3.649,3.649,0,0,1-2.242-1.879Zm16.025-7.126a3.648,3.648,0,0,1,.5-2.882,3.936,3.936,0,0,1,5.358-1.239,3.75,3.75,0,0,1,1.22,5.251,3.945,3.945,0,0,1-5.365,1.239,3.645,3.645,0,0,1-1.715-2.369Zm17.117-2.807a3.65,3.65,0,0,1,1.069-2.722,3.938,3.938,0,0,1,5.5-.14,3.75,3.75,0,0,1,.143,5.387,3.946,3.946,0,0,1-5.505.14,3.647,3.647,0,0,1-1.206-2.665Zm17.394,1a3.652,3.652,0,0,1,1.715-2.371A3.935,3.935,0,0,1,206.8,69.63a3.753,3.753,0,0,1-1.206,5.252,3.946,3.946,0,0,1-5.365-1.24,3.647,3.647,0,0,1-.5-2.88ZM216.472,76.1a3.641,3.641,0,0,1,2.242-1.88,3.933,3.933,0,0,1,4.893,2.506,3.75,3.75,0,0,1-2.45,4.8,3.944,3.944,0,0,1-4.9-2.509,3.644,3.644,0,0,1,.215-2.917Zm15.022,9.4a3.65,3.65,0,0,1,2.625-1.292,3.934,3.934,0,0,1,4.156,3.6,3.75,3.75,0,0,1-3.524,4.077,3.942,3.942,0,0,1-4.161-3.605,3.647,3.647,0,0,1,.9-2.781ZM243.74,97.9a3.649,3.649,0,0,1,2.856-.634,3.934,3.934,0,0,1,3.187,4.481,3.747,3.747,0,0,1-4.386,3.13,3.947,3.947,0,0,1-3.193-4.487A3.655,3.655,0,0,1,243.74,97.9Zm8.834,15.156a3.654,3.654,0,0,1,2.925.07,3.938,3.938,0,0,1,2.016,5.116,3.749,3.749,0,0,1-5.01,1.984,3.944,3.944,0,0,1-2.02-5.123,3.652,3.652,0,0,1,2.089-2.048Zm4.966,16.846a3.638,3.638,0,0,1,2.817.79,3.933,3.933,0,0,1,.693,5.455,3.747,3.747,0,0,1-5.345.685,3.943,3.943,0,0,1-.692-5.461,3.642,3.642,0,0,1,2.527-1.468Zm.87,17.609a3.639,3.639,0,0,1,2.529,1.47,3.935,3.935,0,0,1-.693,5.455,3.748,3.748,0,0,1-5.346-.673,3.945,3.945,0,0,1,.693-5.462,3.646,3.646,0,0,1,2.816-.79Zm-3.394,17.227a3.653,3.653,0,0,1,2.09,2.048,3.936,3.936,0,0,1-2.018,5.116,3.749,3.749,0,0,1-5.015-1.969,3.94,3.94,0,0,1,2.02-5.123A3.647,3.647,0,0,1,255.017,164.742Z" transform="translate(0 0)" fill="#fff" stroke="rgba(0,0,0,0)" stroke-width="1"/>
    <path id="Path_30" data-name="Path 30" d="M246.247,163.656l2.107,6.523,6.854-.013-5.551,4.017,2.13,6.516-5.54-4.039L240.71,180.7l2.131-6.516-5.555-4.017,6.856.013,2.1-6.523Zm-99.906,0,2.105,6.523,6.855-.013-5.552,4.017,2.131,6.516-5.54-4.039L140.8,180.7l2.131-6.516-5.553-4.017,6.855.013Z" transform="translate(-9.959 -32.482)" fill="#fff" stroke="rgba(0,0,0,0)" stroke-width="1"/>
    <text id="PARTY" transform="translate(151.265 158.927)" fill="#fff" font-size="54" font-family="Devant-Medium, Devant" font-weight="500" letter-spacing="0.04em"><tspan x="0" y="0">PARTY</tspan></text>
    <text id="_3RD" data-name="3RD" transform="translate(174.265 102.927)" fill="#fff" font-size="36" font-family="Devant-Medium, Devant" font-weight="500" letter-spacing="0.04em"><tspan x="0" y="0">3RD</tspan></text>
    <text id="TESTED" transform="translate(157.265 204.927)" fill="#fff" font-size="36" font-family="Devant-Medium, Devant" font-weight="500" letter-spacing="0.04em"><tspan x="0" y="0">TESTED</tspan></text>
  </g>
</svg>
